<?xml version="1.0" encoding="utf-8"?>
<!-- Generator: Adobe Illustrator 27.4.0, SVG Export Plug-In . SVG Version: 6.00 Build 0)  -->
<svg version="1.1" id="Layer_1" xmlns="http://www.w3.org/2000/svg" xmlns:xlink="http://www.w3.org/1999/xlink" x="0px" y="0px"
	 viewBox="0 0 51.9 72.5" style="enable-background:new 0 0 51.9 72.5;" xml:space="preserve">
<style type="text/css">
	.st0{fill:#9F2FF6;}
	.st1{fill:#DCFF04;}
</style>
<g>
	<path class="st0" d="M24.2,27.7c0.5,0.5,1.1,0.7,1.8,0.7s1.3-0.2,1.8-0.7L51.2,4.3c1-1,1-2.6,0-3.5c-1-1-2.6-1-3.5,0L26,22.4
		L4.3,0.7c-1-1-2.6-1-3.5,0c-1,1-1,2.6,0,3.5L24.2,27.7z"/>
	<path class="st1" d="M47.7,22.7L26,44.4L4.3,22.7c-1-1-2.6-1-3.5,0c-1,1-1,2.6,0,3.5l23.5,23.5c0.5,0.5,1.1,0.7,1.8,0.7
		s1.3-0.2,1.8-0.7l23.5-23.5c1-1,1-2.6,0-3.5C50.2,21.8,48.6,21.8,47.7,22.7z"/>
	<path class="st0" d="M47.7,44.7L26,66.4L4.3,44.7c-1-1-2.6-1-3.5,0c-1,1-1,2.6,0,3.5l23.5,23.5c0.5,0.5,1.1,0.7,1.8,0.7
		s1.3-0.2,1.8-0.7l23.5-23.5c1-1,1-2.6,0-3.5S48.6,43.8,47.7,44.7z"/>
</g>
</svg>
