<?xml version="1.0" encoding="utf-8"?>
<!-- Generator: Adobe Illustrator 26.0.3, SVG Export Plug-In . SVG Version: 6.00 Build 0)  -->
<svg version="1.1" id="Layer_1" xmlns="http://www.w3.org/2000/svg" xmlns:xlink="http://www.w3.org/1999/xlink" x="0px" y="0px"
	 viewBox="0 0 13.7 10.1" style="enable-background:new 0 0 13.7 10.1;" xml:space="preserve">
<style type="text/css">
	.st0{fill:#FFFFFF;}
</style>
<path class="st0" d="M13.2,0.4C13.2,0.4,13.2,0.4,13.2,0.4c-0.6-0.6-1.5-0.6-2.1,0L5,6.5L2.5,4C2,3.4,1,3.4,0.4,4c0,0,0,0,0,0
	c-0.6,0.6-0.6,1.5,0,2.1L4,9.7c0.6,0.6,1.5,0.6,2.1,0c0,0,0,0,0,0c0,0,0,0,0,0c0,0,0,0,0.1,0l7.1-7.1C13.8,2,13.8,1,13.2,0.4z"/>
</svg>
