<?xml version="1.0" encoding="utf-8"?>
<!-- Generator: Adobe Illustrator 27.4.0, SVG Export Plug-In . SVG Version: 6.00 Build 0)  -->
<svg version="1.1" id="Layer_1" xmlns="http://www.w3.org/2000/svg" xmlns:xlink="http://www.w3.org/1999/xlink" x="0px" y="0px"
	 viewBox="0 0 114.3 103.6" style="enable-background:new 0 0 114.3 103.6;" xml:space="preserve">
<style type="text/css">
	.st0{fill:#E0E0E1;}
	.st1{fill:#131518;}
	.st2{fill:#DCFF04;}
</style>
<g>
	<path class="st0" d="M39.1,25.4C17.5,25.4,0,42.9,0,64.5c0,21.6,17.5,39.1,39.1,39.1c21.6,0,39.1-17.5,39.1-39.1
		C78.3,42.9,60.7,25.4,39.1,25.4z M31.7,75.4c-0.2,0.4-0.4,0.7-0.7,1c-0.3,0.3-0.6,0.5-1,0.6c-0.4,0.2-0.8,0.3-1.2,0.3
		c-0.4,0-0.9-0.1-1.2-0.3c-0.4-0.2-0.7-0.4-1-0.6c-0.3-0.3-0.5-0.6-0.7-1c-0.2-0.4-0.2-0.8-0.2-1.3c0-0.4,0.1-0.9,0.2-1.2
		c0.2-0.4,0.4-0.7,0.7-1c0.3-0.3,0.6-0.5,1-0.7c0.4-0.2,0.8-0.3,1.2-0.3c0.4,0,0.8,0.1,1.2,0.3c0.4,0.2,0.7,0.4,1,0.7
		c0.3,0.3,0.5,0.6,0.7,1c0.2,0.4,0.3,0.8,0.3,1.2C31.9,74.6,31.9,75,31.7,75.4z M31.7,64.3c-0.2,0.4-0.4,0.7-0.7,1
		c-0.3,0.3-0.6,0.5-1,0.7c-0.4,0.2-0.8,0.2-1.2,0.2c-0.4,0-0.9-0.1-1.2-0.2c-0.4-0.2-0.7-0.4-1-0.7c-0.3-0.3-0.5-0.6-0.7-1
		c-0.2-0.4-0.2-0.8-0.2-1.3s0.1-0.9,0.2-1.2c0.2-0.4,0.4-0.7,0.7-1c0.3-0.3,0.6-0.5,1-0.7c0.4-0.2,0.8-0.3,1.2-0.3
		c0.4,0,0.8,0.1,1.2,0.3c0.4,0.2,0.7,0.4,1,0.7c0.3,0.3,0.5,0.6,0.7,1c0.2,0.4,0.3,0.8,0.3,1.2S31.9,63.9,31.7,64.3z M54,69.6
		c0,2.2-0.3,4.1-1,5.6c-0.6,1.6-1.5,2.9-2.6,3.9c-1.1,1-2.4,1.8-3.9,2.2c-1.5,0.5-3,0.7-4.7,0.7h-1.4v-4.2h1.2
		c1.2,0,2.2-0.2,3.2-0.5c1-0.3,1.8-0.8,2.5-1.5c0.7-0.7,1.3-1.6,1.7-2.6c0.4-1.1,0.6-2.4,0.6-3.9V61c0-1.5-0.2-2.8-0.6-3.9
		c-0.4-1.1-1-2-1.7-2.7c-0.7-0.7-1.6-1.2-2.5-1.5c-1-0.3-2-0.5-3.2-0.5h-1.2v-4.2h1.4c1.6,0,3.2,0.2,4.7,0.7
		c1.5,0.5,2.8,1.2,3.9,2.2c1.1,1,2,2.3,2.6,3.9c0.7,1.6,1,3.5,1,5.6V69.6z"/>
	<path class="st1" d="M31,71.9c-0.3-0.3-0.6-0.5-1-0.7c-0.4-0.2-0.8-0.3-1.2-0.3c-0.4,0-0.9,0.1-1.2,0.3c-0.4,0.2-0.7,0.4-1,0.7
		c-0.3,0.3-0.5,0.6-0.7,1c-0.2,0.4-0.2,0.8-0.2,1.2c0,0.4,0.1,0.9,0.2,1.3c0.2,0.4,0.4,0.7,0.7,1c0.3,0.3,0.6,0.5,1,0.6
		c0.4,0.2,0.8,0.3,1.2,0.3c0.4,0,0.8-0.1,1.2-0.3c0.4-0.2,0.7-0.4,1-0.6c0.3-0.3,0.5-0.6,0.7-1c0.2-0.4,0.3-0.8,0.3-1.3
		c0-0.4-0.1-0.9-0.3-1.2C31.5,72.5,31.3,72.2,31,71.9z"/>
	<path class="st1" d="M50.4,51.3c-1.1-1-2.4-1.8-3.9-2.2c-1.5-0.5-3-0.7-4.7-0.7h-1.4v4.2h1.2c1.2,0,2.2,0.2,3.2,0.5
		c1,0.3,1.8,0.8,2.5,1.5c0.7,0.7,1.3,1.6,1.7,2.7c0.4,1.1,0.6,2.4,0.6,3.9v8.3c0,1.5-0.2,2.8-0.6,3.9c-0.4,1.1-1,1.9-1.7,2.6
		c-0.7,0.7-1.6,1.2-2.5,1.5c-1,0.3-2,0.5-3.2,0.5h-1.2V82h1.4c1.6,0,3.2-0.2,4.7-0.7c1.5-0.5,2.8-1.2,3.9-2.2c1.1-1,2-2.3,2.6-3.9
		c0.7-1.6,1-3.5,1-5.6v-8.8c0-2.2-0.3-4.1-1-5.6C52.3,53.6,51.5,52.3,50.4,51.3z"/>
	<path class="st1" d="M31,60.8c-0.3-0.3-0.6-0.5-1-0.7c-0.4-0.2-0.8-0.3-1.2-0.3c-0.4,0-0.9,0.1-1.2,0.3c-0.4,0.2-0.7,0.4-1,0.7
		c-0.3,0.3-0.5,0.6-0.7,1c-0.2,0.4-0.2,0.8-0.2,1.2s0.1,0.9,0.2,1.3c0.2,0.4,0.4,0.7,0.7,1c0.3,0.3,0.6,0.5,1,0.7
		c0.4,0.2,0.8,0.2,1.2,0.2c0.4,0,0.8-0.1,1.2-0.2c0.4-0.2,0.7-0.4,1-0.7c0.3-0.3,0.5-0.6,0.7-1c0.2-0.4,0.3-0.8,0.3-1.3
		s-0.1-0.9-0.3-1.2C31.5,61.4,31.3,61,31,60.8z"/>
	<path class="st2" d="M113.7,18.9l-6.6-2.7c-0.6-0.2-0.8-0.9-0.5-1.5l3.8-6.1c0.5-0.8-0.2-1.7-1.1-1.5L102.4,9
		c-0.6,0.2-1.2-0.3-1.2-0.9l-0.5-7.1c-0.1-0.9-1.2-1.3-1.8-0.6l-4.6,5.5c-0.4,0.5-1.1,0.5-1.5,0l-4.6-5.5c-0.6-0.7-1.7-0.3-1.8,0.6
		l-0.5,7.1c0,0.6-0.6,1.1-1.2,0.9l-6.9-1.7C76.8,7,76.1,8,76.6,8.7l3.8,6.1c0.3,0.5,0.1,1.2-0.5,1.5l-6.6,2.7
		c-0.8,0.3-0.8,1.5,0,1.9l6.6,2.7c0.6,0.2,0.8,0.9,0.5,1.5L76.6,31c-0.5,0.8,0.2,1.7,1.1,1.5l6.9-1.7c0.6-0.2,1.2,0.3,1.2,0.9
		l0.5,7.1c0.1,0.9,1.2,1.3,1.8,0.6l4.6-5.5c0.4-0.5,1.1-0.5,1.5,0l4.6,5.5c0.6,0.7,1.7,0.3,1.8-0.6l0.5-7.1c0-0.6,0.6-1.1,1.2-0.9
		l6.9,1.7c0.9,0.2,1.6-0.7,1.1-1.5l-3.8-6.1c-0.3-0.5-0.1-1.2,0.5-1.5l6.6-2.7C114.5,20.4,114.5,19.3,113.7,18.9z"/>
</g>
</svg>
